<svg xmlns="http://www.w3.org/2000/svg" xmlns:xlink="http://www.w3.org/1999/xlink" width="500" zoomAndPan="magnify" viewBox="0 0 375 374.999991" height="500" preserveAspectRatio="xMidYMid meet" version="1.0"><defs><g/><clipPath id="df5929a9d6"><path d="M 45 169 L 117 169 L 117 242 L 45 242 Z M 45 169 " clip-rule="nonzero"/></clipPath><clipPath id="03f4625a85"><path d="M 104.5 169.535156 L 116.695312 181.734375 L 57.300781 241.128906 L 45.101562 228.933594 Z M 104.5 169.535156 " clip-rule="nonzero"/></clipPath><clipPath id="7be882665e"><path d="M 104.5 169.535156 L 116.761719 181.800781 L 57.015625 241.546875 L 44.753906 229.28125 Z M 104.5 169.535156 " clip-rule="nonzero"/></clipPath><clipPath id="a3585f7171"><path d="M 104.5 169.535156 L 116.695312 181.730469 L 57.300781 241.128906 L 45.101562 228.933594 Z M 104.5 169.535156 " clip-rule="nonzero"/></clipPath><clipPath id="13afbf9adb"><path d="M 63 171 L 135 171 L 135 244 L 63 244 Z M 63 171 " clip-rule="nonzero"/></clipPath><clipPath id="e7628d6ea4"><path d="M 122.558594 171.511719 L 134.753906 183.710938 L 75.355469 243.105469 L 63.160156 230.910156 Z M 122.558594 171.511719 " clip-rule="nonzero"/></clipPath><clipPath id="a7727fe3b8"><path d="M 122.558594 171.511719 L 134.820312 183.777344 L 75.074219 243.523438 L 62.808594 231.261719 Z M 122.558594 171.511719 " clip-rule="nonzero"/></clipPath><clipPath id="8b2b6fc544"><path d="M 122.558594 171.511719 L 134.753906 183.710938 L 75.355469 243.105469 L 63.160156 230.910156 Z M 122.558594 171.511719 " clip-rule="nonzero"/></clipPath><clipPath id="77104fcd16"><path d="M 43 151 L 116 151 L 116 223 L 43 223 Z M 43 151 " clip-rule="nonzero"/></clipPath><clipPath id="dc6be5c8df"><path d="M 102.925781 151.09375 L 115.121094 163.289062 L 55.722656 222.6875 L 43.527344 210.488281 Z M 102.925781 151.09375 " clip-rule="nonzero"/></clipPath><clipPath id="75095102c9"><path d="M 102.925781 151.09375 L 115.1875 163.355469 L 55.441406 223.105469 L 43.175781 210.839844 Z M 102.925781 151.09375 " clip-rule="nonzero"/></clipPath><clipPath id="a219c3c9a4"><path d="M 102.925781 151.09375 L 115.121094 163.289062 L 55.722656 222.6875 L 43.527344 210.488281 Z M 102.925781 151.09375 " clip-rule="nonzero"/></clipPath><clipPath id="cf6b52cce0"><path d="M 22 131 L 94 131 L 94 204 L 22 204 Z M 22 131 " clip-rule="nonzero"/></clipPath><clipPath id="e43d6a2baa"><path d="M 81.585938 131.628906 L 93.78125 143.828125 L 34.386719 203.222656 L 22.1875 191.027344 Z M 81.585938 131.628906 " clip-rule="nonzero"/></clipPath><clipPath id="1577090ce1"><path d="M 81.585938 131.628906 L 93.847656 143.894531 L 34.101562 203.640625 L 21.839844 191.378906 Z M 81.585938 131.628906 " clip-rule="nonzero"/></clipPath><clipPath id="7d4479c502"><path d="M 81.585938 131.628906 L 93.78125 143.828125 L 34.386719 203.222656 L 22.1875 191.027344 Z M 81.585938 131.628906 " clip-rule="nonzero"/></clipPath><clipPath id="3f4971583c"><path d="M 40 133 L 112 133 L 112 206 L 40 206 Z M 40 133 " clip-rule="nonzero"/></clipPath><clipPath id="1cd3ad6f59"><path d="M 99.640625 133.605469 L 111.839844 145.804688 L 52.441406 205.203125 L 40.246094 193.003906 Z M 99.640625 133.605469 " clip-rule="nonzero"/></clipPath><clipPath id="af7d9ad05d"><path d="M 99.644531 133.605469 L 111.90625 145.871094 L 52.160156 205.617188 L 39.894531 193.355469 Z M 99.644531 133.605469 " clip-rule="nonzero"/></clipPath><clipPath id="d2e9c766c7"><path d="M 99.644531 133.605469 L 111.839844 145.804688 L 52.441406 205.199219 L 40.246094 193.003906 Z M 99.644531 133.605469 " clip-rule="nonzero"/></clipPath></defs><g fill="#000000" fill-opacity="1"><g transform="translate(134.765122, 209.716763)"><g><path d="M 48.359375 6.5625 C 35.753906 7.164062 26.695312 4.035156 21.1875 -2.828125 C 14.539062 2.304688 9.664062 4.875 6.5625 4.875 C 4.90625 4.875 3.679688 4.0625 2.890625 2.4375 C 2.097656 0.8125 1.703125 -0.941406 1.703125 -2.828125 C 1.703125 -6.453125 3.097656 -11.664062 5.890625 -18.46875 C 9.210938 -26.164062 12.269531 -30.015625 15.0625 -30.015625 C 16.5 -30.015625 17.59375 -27.75 18.34375 -23.21875 C 19.632812 -16.425781 20.804688 -11.742188 21.859375 -9.171875 C 24.347656 -11.816406 27.460938 -15.40625 31.203125 -19.9375 C 34.941406 -24.46875 39.265625 -29.941406 44.171875 -36.359375 C 56.398438 -52.441406 64.519531 -61.238281 68.53125 -62.75 C 69.882812 -63.28125 71.242188 -63.546875 72.609375 -63.546875 C 74.117188 -63.546875 75.34375 -63.222656 76.28125 -62.578125 C 77.226562 -61.929688 77.703125 -61.195312 77.703125 -60.375 C 77.703125 -59.082031 76.609375 -58.328125 74.421875 -58.109375 C 72.828125 -57.273438 70.878906 -55.835938 68.578125 -53.796875 C 66.273438 -51.765625 63.859375 -49.441406 61.328125 -46.828125 C 58.796875 -44.222656 56.4375 -41.65625 54.25 -39.125 C 52.0625 -36.601562 50.289062 -34.4375 48.9375 -32.625 C 40.851562 -21.375 32.769531 -12.382812 24.6875 -5.65625 L 24.015625 -5.09375 C 26.429688 -1.550781 29.335938 0.894531 32.734375 2.25 C 36.128906 3.613281 39.90625 4.296875 44.0625 4.296875 C 50.9375 4.296875 57.488281 3.257812 63.71875 1.1875 C 69.945312 -0.882812 75.570312 -3.976562 80.59375 -8.09375 C 85.613281 -12.207031 89.742188 -17.25 92.984375 -23.21875 C 96.535156 -29.707031 98.3125 -35.898438 98.3125 -41.796875 C 98.3125 -45.796875 97.441406 -49.585938 95.703125 -53.171875 C 93.972656 -56.765625 91.648438 -59.84375 88.734375 -62.40625 C 85.828125 -64.976562 82.601562 -66.640625 79.0625 -67.390625 C 74.90625 -68.296875 70.5625 -68.75 66.03125 -68.75 C 54.40625 -68.75 43.679688 -66.066406 33.859375 -60.703125 C 23.515625 -55.046875 18.34375 -48.707031 18.34375 -41.6875 C 18.34375 -39.789062 18.910156 -38.164062 20.046875 -36.8125 C 20.953125 -35.75 21.59375 -35.144531 21.96875 -35 L 21.296875 -35 C 19.179688 -35.375 17.367188 -36.429688 15.859375 -38.171875 C 14.347656 -39.910156 13.59375 -41.835938 13.59375 -43.953125 C 13.59375 -47.878906 14.816406 -51.484375 17.265625 -54.765625 C 19.722656 -58.046875 23.296875 -61.046875 27.984375 -63.765625 C 37.335938 -69.128906 48.394531 -71.8125 61.15625 -71.8125 C 64.03125 -71.8125 66.898438 -71.660156 69.765625 -71.359375 C 72.640625 -71.054688 75.472656 -70.601562 78.265625 -70 C 83.171875 -68.9375 87.625 -66.929688 91.625 -63.984375 C 95.632812 -61.046875 98.847656 -57.460938 101.265625 -53.234375 C 103.679688 -49.003906 104.890625 -44.4375 104.890625 -39.53125 C 104.890625 -33.863281 103.226562 -28.007812 99.90625 -21.96875 C 96.582031 -15.851562 92.296875 -10.738281 87.046875 -6.625 C 81.796875 -2.507812 75.882812 0.617188 69.3125 2.765625 C 62.75 4.921875 55.765625 6.1875 48.359375 6.5625 Z M 7.140625 2.828125 C 10.378906 1.390625 14.304688 -1.585938 18.921875 -6.109375 C 16.722656 -9.734375 15.285156 -12.796875 14.609375 -15.296875 C 14.160156 -16.953125 13.820312 -19.476562 13.59375 -22.875 C 8.382812 -15.40625 5.78125 -8.875 5.78125 -3.28125 C 5.78125 -0.945312 6.234375 1.085938 7.140625 2.828125 Z M 7.140625 2.828125 "/></g></g></g><g fill="#000000" fill-opacity="1"><g transform="translate(239.086331, 209.716763)"><g><path d="M 25.03125 -38.96875 C 23.75 -38.96875 22.632812 -39.378906 21.6875 -40.203125 C 20.75 -41.035156 20.28125 -41.984375 20.28125 -43.046875 C 20.28125 -45.160156 21.710938 -46.21875 24.578125 -46.21875 C 25.640625 -46.21875 26.695312 -45.859375 27.75 -45.140625 C 28.800781 -44.421875 29.328125 -43.53125 29.328125 -42.46875 C 29.328125 -41.5625 28.835938 -40.75 27.859375 -40.03125 C 26.878906 -39.320312 25.9375 -38.96875 25.03125 -38.96875 Z M 4.078125 1.25 C 2.410156 1.25 1.03125 0.703125 -0.0625 -0.390625 C -1.15625 -1.484375 -1.703125 -3.429688 -1.703125 -6.234375 C -1.703125 -7.816406 -1.34375 -9.644531 -0.625 -11.71875 C 0.09375 -13.800781 1 -15.898438 2.09375 -18.015625 C 3.1875 -20.128906 4.265625 -22.015625 5.328125 -23.671875 C 9.554688 -30.546875 13.03125 -34.019531 15.75 -34.09375 C 16.425781 -34.09375 17.253906 -33.804688 18.234375 -33.234375 C 19.210938 -32.671875 19.703125 -32.050781 19.703125 -31.375 C 19.703125 -31.375 16.832031 -27.675781 11.09375 -20.28125 C 5.4375 -12.945312 2.609375 -7.734375 2.609375 -4.640625 C 2.609375 -2.222656 3.550781 -1.015625 5.4375 -1.015625 C 6.644531 -1.015625 8.210938 -1.523438 10.140625 -2.546875 C 12.066406 -3.566406 14.085938 -4.867188 16.203125 -6.453125 C 18.316406 -8.035156 20.332031 -9.734375 22.25 -11.546875 C 24.175781 -13.359375 25.742188 -15.019531 26.953125 -16.53125 C 27.710938 -17.519531 28.375 -18.203125 28.9375 -18.578125 C 29.5 -18.953125 29.859375 -19.140625 30.015625 -19.140625 C 30.316406 -19.140625 30.46875 -18.914062 30.46875 -18.46875 C 30.46875 -18.082031 30.03125 -17.320312 29.15625 -16.1875 C 28.289062 -15.0625 27.101562 -13.742188 25.59375 -12.234375 C 23.78125 -10.421875 21.78125 -8.457031 19.59375 -6.34375 C 17.40625 -4.226562 15.023438 -2.429688 12.453125 -0.953125 C 9.890625 0.515625 7.097656 1.25 4.078125 1.25 Z M 4.078125 1.25 "/></g></g></g><g fill="#000000" fill-opacity="1"><g transform="translate(264.68524, 209.716763)"><g><path d="M 4.875 0.21875 C 2.976562 0.21875 1.503906 -0.664062 0.453125 -2.4375 C -0.597656 -4.207031 -1.125 -5.925781 -1.125 -7.59375 C -1.125 -12.125 2.15625 -18.46875 8.71875 -26.625 C 15.363281 -34.851562 20.726562 -38.96875 24.8125 -38.96875 C 28.65625 -38.96875 30.578125 -36.925781 30.578125 -32.84375 C 30.578125 -32.238281 30.519531 -31.597656 30.40625 -30.921875 C 30.289062 -30.242188 30.160156 -29.523438 30.015625 -28.765625 C 30.160156 -28.535156 30.535156 -28.421875 31.140625 -28.421875 C 33.179688 -28.421875 35.597656 -29.140625 38.390625 -30.578125 C 38.316406 -29.296875 35.335938 -27.445312 29.453125 -25.03125 C 30.273438 -22.539062 27.78125 -17.785156 21.96875 -10.765625 C 16.007812 -3.441406 10.914062 0.21875 6.6875 0.21875 Z M 6.90625 -3.171875 C 10.15625 -3.171875 14.3125 -6.15625 19.375 -12.125 C 24.28125 -17.9375 26.734375 -22.125 26.734375 -24.6875 C 25.523438 -25.375 24.015625 -27.113281 22.203125 -29.90625 C 19.628906 -29.90625 15.925781 -26.804688 11.09375 -20.609375 C 6.34375 -14.566406 4.039062 -9.925781 4.1875 -6.6875 C 4.257812 -4.34375 5.164062 -3.171875 6.90625 -3.171875 Z M 6.90625 -3.171875 "/></g></g></g><g fill="#000000" fill-opacity="1"><g transform="translate(296.51397, 209.716763)"><g><path d="M 28.875 0.21875 C 26.84375 0.21875 25.410156 -0.363281 24.578125 -1.53125 C 23.742188 -2.695312 23.328125 -4.148438 23.328125 -5.890625 C 23.328125 -10.265625 24.835938 -14.945312 27.859375 -19.9375 L 35.109375 -31.71875 C 29.972656 -27.9375 24.878906 -23.21875 19.828125 -17.5625 C 18.460938 -16.050781 16.929688 -14.273438 15.234375 -12.234375 C 13.535156 -10.191406 11.664062 -7.847656 9.625 -5.203125 C 6.90625 -1.660156 5.28125 0.109375 4.75 0.109375 C 3.695312 0.109375 2.828125 -0.359375 2.140625 -1.296875 C 1.460938 -2.242188 1.125 -3.09375 1.125 -3.84375 C 1.125 -4.445312 1.3125 -5.5625 1.6875 -7.1875 C 2.070312 -8.8125 2.53125 -10.226562 3.0625 -11.4375 C 3.582031 -12.71875 4.125 -13.984375 4.6875 -15.234375 C 5.257812 -16.484375 5.8125 -17.710938 6.34375 -18.921875 L -0.453125 -11.78125 C -0.597656 -11.625 -1.046875 -11.164062 -1.796875 -10.40625 C -2.554688 -9.65625 -3.164062 -9.28125 -3.625 -9.28125 C -4 -9.28125 -4.1875 -9.546875 -4.1875 -10.078125 C -4.1875 -10.234375 -4.128906 -10.441406 -4.015625 -10.703125 C -3.898438 -10.960938 -3.65625 -11.285156 -3.28125 -11.671875 C -2.144531 -12.796875 -0.976562 -14 0.21875 -15.28125 C 1.425781 -16.570312 2.675781 -18.046875 3.96875 -19.703125 C 4.644531 -20.535156 5.660156 -21.800781 7.015625 -23.5 C 8.378906 -25.195312 9.875 -27.023438 11.5 -28.984375 C 13.125 -30.953125 14.648438 -32.769531 16.078125 -34.4375 C 16.460938 -34.957031 16.878906 -35.3125 17.328125 -35.5 C 17.785156 -35.695312 18.085938 -35.796875 18.234375 -35.796875 C 20.273438 -35.796875 21.296875 -35 21.296875 -33.40625 C 21.296875 -32.957031 21.179688 -32.503906 20.953125 -32.046875 C 14.160156 -22.691406 10.082031 -15.554688 8.71875 -10.640625 C 17.476562 -19.398438 24.519531 -25.988281 29.84375 -30.40625 C 35.164062 -34.820312 38.960938 -37.03125 41.234375 -37.03125 C 42.441406 -37.03125 43.363281 -36.84375 44 -36.46875 C 44.644531 -36.09375 44.96875 -35.375 44.96875 -34.3125 C 44.96875 -33.9375 44.929688 -33.632812 44.859375 -33.40625 C 44.628906 -32.882812 43.078125 -30.773438 40.203125 -27.078125 C 38.472656 -24.960938 36.945312 -23.035156 35.625 -21.296875 C 34.300781 -19.554688 33.222656 -18.046875 32.390625 -16.765625 C 31.035156 -14.648438 30.015625 -12.664062 29.328125 -10.8125 C 28.648438 -8.96875 28.3125 -7.398438 28.3125 -6.109375 C 28.3125 -5.585938 28.382812 -4.945312 28.53125 -4.1875 C 28.6875 -3.4375 29.144531 -3.0625 29.90625 -3.0625 C 31.632812 -3.0625 34.351562 -4.570312 38.0625 -7.59375 C 39.789062 -9.101562 41.410156 -10.628906 42.921875 -12.171875 C 44.429688 -13.722656 45.867188 -15.253906 47.234375 -16.765625 C 47.535156 -17.066406 48.023438 -17.648438 48.703125 -18.515625 C 49.378906 -19.390625 49.796875 -19.828125 49.953125 -19.828125 C 50.253906 -19.828125 50.40625 -19.523438 50.40625 -18.921875 C 50.40625 -18.617188 50.234375 -18.109375 49.890625 -17.390625 C 49.554688 -16.671875 49.195312 -16.125 48.8125 -15.75 C 47.988281 -14.757812 46.765625 -13.394531 45.140625 -11.65625 C 43.515625 -9.925781 41.703125 -8.15625 39.703125 -6.34375 C 37.703125 -4.53125 35.753906 -2.984375 33.859375 -1.703125 C 31.972656 -0.421875 30.3125 0.21875 28.875 0.21875 Z M 28.875 0.21875 "/></g></g></g><path stroke-linecap="butt" transform="matrix(0.747885, 0.00409058, -0.00410209, 0.749989, 148.610664, 228.707548)" fill="none" stroke-linejoin="miter" d="M -0.00146471 0.999334 L 100.296959 0.99917 " stroke="#000000" stroke-width="2" stroke-opacity="1" stroke-miterlimit="4"/><path stroke-linecap="butt" transform="matrix(0.747885, 0.00409058, -0.00410209, 0.749989, 268.823394, 228.707548)" fill="none" stroke-linejoin="miter" d="M 0.00136083 0.999318 L 100.294562 0.999183 " stroke="#000000" stroke-width="2" stroke-opacity="1" stroke-miterlimit="4"/><g clip-path="url(#df5929a9d6)"><g clip-path="url(#03f4625a85)"><g clip-path="url(#7be882665e)"><g clip-path="url(#a3585f7171)"><path stroke-linecap="butt" transform="matrix(0.52997, 0.52997, -0.52812, 0.52812, 104.499672, 169.535422)" fill="none" stroke-linejoin="miter" d="M 0.0000582533 -0.000562542 L 23.011383 -0.000562542 L 23.015068 112.467272 L 0.0000582533 112.47097 L 0.0000582533 -0.000562542 " stroke="#000000" stroke-width="8" stroke-opacity="1" stroke-miterlimit="4"/></g></g></g></g><g fill="#000000" fill-opacity="1"><g transform="translate(223.831703, 235.834557)"><g><path d="M 2.3125 0.078125 C 1.976562 0.078125 1.71875 -0.0078125 1.53125 -0.1875 C 1.34375 -0.375 1.25 -0.617188 1.25 -0.921875 C 1.25 -1.210938 1.34375 -1.453125 1.53125 -1.640625 C 1.71875 -1.835938 1.976562 -1.9375 2.3125 -1.9375 C 2.632812 -1.9375 2.890625 -1.84375 3.078125 -1.65625 C 3.265625 -1.476562 3.359375 -1.238281 3.359375 -0.9375 C 3.359375 -0.632812 3.265625 -0.390625 3.078125 -0.203125 C 2.890625 -0.015625 2.632812 0.078125 2.3125 0.078125 Z M 2.3125 0.078125 "/></g></g></g><g fill="#000000" fill-opacity="1"><g transform="translate(228.450504, 235.834557)"><g><path d="M 5.953125 -12.53125 C 7.210938 -12.53125 8.296875 -12.300781 9.203125 -11.84375 C 10.117188 -11.382812 10.820312 -10.691406 11.3125 -9.765625 C 11.8125 -8.835938 12.0625 -7.671875 12.0625 -6.265625 C 12.0625 -4.859375 11.8125 -3.6875 11.3125 -2.75 C 10.820312 -1.820312 10.117188 -1.128906 9.203125 -0.671875 C 8.296875 -0.222656 7.210938 0 5.953125 0 L 1.890625 0 L 1.890625 -12.53125 Z M 5.796875 -1.25 C 6.847656 -1.25 7.710938 -1.410156 8.390625 -1.734375 C 9.078125 -2.066406 9.597656 -2.597656 9.953125 -3.328125 C 10.304688 -4.066406 10.484375 -5.046875 10.484375 -6.265625 C 10.484375 -7.484375 10.304688 -8.457031 9.953125 -9.1875 C 9.597656 -9.925781 9.078125 -10.457031 8.390625 -10.78125 C 7.710938 -11.113281 6.847656 -11.28125 5.796875 -11.28125 L 3.359375 -11.28125 L 3.359375 -1.25 Z M 5.796875 -1.25 "/></g></g></g><g fill="#000000" fill-opacity="1"><g transform="translate(241.767029, 235.834557)"><g><path d="M 3.359375 -5.90625 L 3.359375 -1.21875 L 9.75 -1.21875 L 9.75 0 L 1.890625 0 L 1.890625 -12.53125 L 9.609375 -12.53125 L 9.609375 -11.3125 L 3.359375 -11.3125 L 3.359375 -7.125 L 8.875 -7.125 L 8.875 -5.90625 Z M 3.359375 -5.90625 "/></g></g></g><g fill="#000000" fill-opacity="1"><g transform="translate(252.349988, 235.834557)"><g><path d="M 6.8125 0 L 4.890625 0 L 0.546875 -12.53125 L 2.109375 -12.53125 L 5.78125 -1.84375 L 6 -1.84375 L 9.625 -12.53125 L 11.171875 -12.53125 Z M 6.8125 0 "/></g></g></g><g clip-path="url(#13afbf9adb)"><g clip-path="url(#e7628d6ea4)"><g clip-path="url(#a7727fe3b8)"><g clip-path="url(#8b2b6fc544)"><path stroke-linecap="butt" transform="matrix(0.52997, 0.52997, -0.52812, 0.52812, 122.557086, 171.512962)" fill="none" stroke-linejoin="miter" d="M 0.000249175 -0.00260479 L 23.015259 0.00109347 L 23.011574 112.468928 L 0.000249175 112.468928 L 0.000249175 -0.00260479 " stroke="#000000" stroke-width="8" stroke-opacity="1" stroke-miterlimit="4"/></g></g></g></g><g clip-path="url(#77104fcd16)"><g clip-path="url(#dc6be5c8df)"><g clip-path="url(#75095102c9)"><g clip-path="url(#a219c3c9a4)"><path stroke-linecap="butt" transform="matrix(0.52997, 0.52997, -0.52812, 0.52812, 102.9243, 151.093012)" fill="none" stroke-linejoin="miter" d="M 0.00209317 -0.000703995 L 23.013418 -0.000703995 L 23.013418 112.470828 L -0.00159218 112.46713 L 0.00209317 -0.000703995 " stroke="#000000" stroke-width="8" stroke-opacity="1" stroke-miterlimit="4"/></g></g></g></g><g clip-path="url(#cf6b52cce0)"><g clip-path="url(#e43d6a2baa)"><g clip-path="url(#1577090ce1)"><g clip-path="url(#7d4479c502)"><path stroke-linecap="butt" transform="matrix(0.52997, 0.52997, -0.52812, 0.52812, 81.585388, 131.629753)" fill="none" stroke-linejoin="miter" d="M -0.000280345 -0.00132192 L 23.01473 0.00237634 L 23.01473 112.466512 L -0.000280345 112.47021 L -0.000280345 -0.00132192 " stroke="#000000" stroke-width="8" stroke-opacity="1" stroke-miterlimit="4"/></g></g></g></g><g clip-path="url(#3f4971583c)"><g clip-path="url(#1cd3ad6f59)"><g clip-path="url(#af7d9ad05d)"><g clip-path="url(#d2e9c766c7)"><path stroke-linecap="butt" transform="matrix(0.52997, 0.52997, -0.52812, 0.52812, 99.6428, 133.60729)" fill="none" stroke-linejoin="miter" d="M -0.0000848947 -0.00336417 L 23.014925 0.000334091 L 23.01124 112.468168 L -0.0000848947 112.468168 L -0.0000848947 -0.00336417 " stroke="#000000" stroke-width="8" stroke-opacity="1" stroke-miterlimit="4"/></g></g></g></g></svg>